<?xml version="1.0" encoding="utf-8"?>
<!-- Generator: Adobe Illustrator 19.0.0, SVG Export Plug-In . SVG Version: 6.00 Build 0)  -->
<svg version="1.1" id="Layer_1" xmlns="http://www.w3.org/2000/svg" xmlns:xlink="http://www.w3.org/1999/xlink" x="0px" y="0px"
	 viewBox="0 0 500 500" style="enable-background:new 0 0 500 500;" xml:space="preserve">
<style type="text/css">
	.st0{fill:#329545;}
	.st1{fill:#FDD43B;}
	.st2{fill:#144A99;}
	.st3{fill:#FFFFFF;}
	.st4{fill:#154B99;}
	.st5{fill:#2C99CF;}
	.st6{fill:#1B3764;}
	.st7{fill:#13679B;}
</style>
<g id="rdf_hdt">
	<g id="XMLID_583_">
		<path id="path1948_3_" class="st0" d="M131.1,131.8c-9.6,0-18.8,0.9-26.9,2.3c-23.9,4.2-28.2,13-28.2,29.3v21.5h56.4v7.2H76H54.8
			c-16.4,0-30.7,9.9-35.2,28.6c-5.2,21.5-5.4,34.9,0,57.3c4,16.7,13.6,28.6,30,28.6h19.4v-25.8c0-18.6,16.1-35,35.2-35h56.3
			c15.7,0,28.2-12.9,28.2-28.7v-53.7c0-15.3-12.9-26.8-28.2-29.3C150.8,132.5,140.8,131.8,131.1,131.8z M100.6,149.1
			c5.8,0,10.6,4.8,10.6,10.8c0,5.9-4.8,10.7-10.6,10.7c-5.8,0-10.6-4.8-10.6-10.7C90,153.9,94.8,149.1,100.6,149.1z"/>
		<path id="path1950_4_" class="st1" d="M195.7,192.1v25c0,19.4-16.5,35.8-35.2,35.8h-56.3c-15.4,0-28.2,13.2-28.2,28.7v53.7
			c0,15.3,13.3,24.3,28.2,28.7c17.9,5.2,35,6.2,56.3,0c14.2-4.1,28.2-12.4,28.2-28.7v-21.5h-56.3v-7.2h56.3h28.2
			c16.4,0,22.5-11.4,28.2-28.6c5.9-17.7,5.6-34.7,0-57.3c-4.1-16.3-11.8-28.6-28.2-28.6H195.7z M164,328.1c5.8,0,10.6,4.8,10.6,10.7
			c0,5.9-4.7,10.8-10.6,10.8c-5.8,0-10.6-4.8-10.6-10.8C153.5,332.9,158.2,328.1,164,328.1z"/>
		<path id="XMLID_592_" class="st2" d="M182.7,302.2c2.8-9.3,1.2-19.9-6.3-27.8c-2.1-2.3-4.7-4.2-7.4-5.7c-1-0.5-2-1-3-1.4
			c0,0-5.7-2.9-6.3-23.6c-0.2-6.9-0.3-15.4,3.2-21.6c0.5-0.9,1-1.8,1.8-2.4c4-3.4,8.4-5.8,11.3-10.3c3-4.6,4.6-10,4.6-15.5
			c0-24-29.3-37.4-47.5-22c-2.8,2.4-5.1,5.3-6.8,8.5c-3.1,5.8-3.9,12.1-3,18.1c0,0,1.4,7-16.2,17.9c-15.6,9.7-23.2,7.1-24.7,6.4
			c-4.5-2.8-9.7-4.5-15.4-4.5c-24,0-37.4,29.4-21.9,47.6c2.4,2.8,5.2,5.1,8.4,6.8c10.5,5.6,22.9,4,31.6-3c0,0,6.2-4.9,24.7,5
			c14.6,7.8,16.7,15.5,17,18.4c0.8,7.8,2,14.5,7.5,20.5C149.3,330.2,176.4,323.1,182.7,302.2z M113.5,266.7
			c-15.2-8.2-17.4-15-17.8-17c0.2-2.5,0.1-5-0.3-7.4l0.1,0.1c0,0-1.2-6.6,16.1-17.4c15.6-9.7,22.6-7.7,23.9-7.2
			c0.8,0.6,1.7,1.1,2.6,1.6c1.8,0.9,3.6,1.7,5.4,2.2c2.1,2,6.1,7.8,6.5,23c0.4,15.3-4.1,21.2-6.5,23.3c-2.5,1.1-4.9,2.7-7,4.5
			C134.2,273.3,127.5,274.2,113.5,266.7z"/>
		<g id="XMLID_590_">
			<path id="XMLID_591_" class="st3" d="M134.6,177.7c-8.4,9.2-8.6,22.7-0.5,30.3c-4-3.8-3.9-11.9,0.1-19.5c0.5-0.7,2-2.3,4.2-1.6
				c0.2,0.1,0.4,0.1,0.5,0.1c0.5,0.1,1,0.2,1.5,0.1c3.3-0.2,5.9-3,5.8-6.3c-0.1-1.5-0.7-2.8-1.7-3.8c7.8-5.1,16.7-5.7,20.3-2.3
				l0.1,0C156.7,167,143.1,168.4,134.6,177.7z"/>
		</g>
		<g id="XMLID_587_">
			<path id="XMLID_589_" class="st3" d="M49.9,262.5c-0.1-0.1-0.1-0.2-0.2-0.2C49.8,262.3,49.8,262.4,49.9,262.5L49.9,262.5z"/>
			<path id="XMLID_588_" class="st3" d="M50.2,232c-8.4,9.2-8.6,22.7-0.5,30.3c-4-3.9-3.9-11.9,0.1-19.5c0.5-0.7,2-2.3,4.2-1.6
				c0.2,0.1,0.4,0.1,0.5,0.1c0.5,0.1,1,0.2,1.5,0.1c3.3-0.2,5.9-3,5.8-6.3c-0.1-1.5-0.7-2.8-1.6-3.8c7.7-5.1,16.6-5.7,20.3-2.3
				l0.1,0C72.3,221.3,58.7,222.7,50.2,232z"/>
		</g>
		<g id="XMLID_584_">
			<path id="XMLID_586_" class="st3" d="M139.3,308.5c-0.1-0.1-0.1-0.2-0.2-0.2C139.1,308.3,139.1,308.4,139.3,308.5L139.3,308.5z"
				/>
			<path id="XMLID_585_" class="st3" d="M139.5,277.9c-8.4,9.2-8.6,22.7-0.5,30.3c-4-3.8-3.9-11.9,0.1-19.5c0.5-0.7,2-2.3,4.2-1.6
				c0.2,0.1,0.4,0.1,0.5,0.1c0.5,0.1,1,0.2,1.5,0.1c3.3-0.2,5.9-3,5.8-6.3c-0.1-1.5-0.7-2.8-1.6-3.8c7.8-5.1,16.6-5.7,20.3-2.3
				l0.1,0C161.6,267.3,148,268.7,139.5,277.9z"/>
		</g>
	</g>
	<polygon id="XMLID_128_" class="st4" points="287.9,240.1 287.9,223.5 278.9,223.5 278.9,240.1 262.3,240.1 262.3,249.1 
		278.9,249.1 278.9,265.7 287.9,265.7 287.9,249.1 304.5,249.1 304.5,240.1 	"/>
	<path id="XMLID_125_" class="st5" d="M352,217c-19.5,0-35.4-15.9-35.4-35.4s15.9-35.4,35.4-35.4c19.5,0,35.4,15.9,35.4,35.4
		S371.5,217,352,217z M352,155.7c-14.3,0-25.9,11.6-25.9,25.9s11.6,25.9,25.9,25.9c14.3,0,25.9-11.6,25.9-25.9
		S366.3,155.7,352,155.7z"/>
	<path id="XMLID_425_" class="st6" d="M433.2,283.8c-28.2,0-51.2-22.9-51.2-51.2s22.9-51.2,51.2-51.2s51.2,22.9,51.2,51.2
		S461.4,283.8,433.2,283.8z M433.2,192.6c-22.1,0-40.1,18-40.1,40.1s18,40.1,40.1,40.1s40.1-18,40.1-40.1S455.3,192.6,433.2,192.6z"
		/>
	<path id="XMLID_434_" class="st7" d="M352,339.6c-23.1,0-41.9-18.8-41.9-41.9c0-23.1,18.8-41.9,41.9-41.9s41.9,18.8,41.9,41.9
		C393.9,320.8,375.1,339.6,352,339.6z M352,265.3c-17.9,0-32.4,14.5-32.4,32.4c0,17.9,14.5,32.4,32.4,32.4
		c17.9,0,32.4-14.5,32.4-32.4C384.4,279.8,369.9,265.3,352,265.3z"/>
</g>
</svg>
